# xmcd
#
# Track frame offsets:
#	150
#	4320
#	21246
#	36803
#	51365
#	68055
#	80436
#	97104
#	114644
#	129084
#	144632
#
# Disc length: 2166 seconds
#
# Revision: 1
# Processed by: cddbd v1.5.2PL0 Copyright (c) Steve Scherf et al.
# Submitted via: EZCDAudioConverter 5.0.3.2
#
DISCID=9308740b
DTITLE=Lovelyz - Hi~
DYEAR=2015
DGENRE=Pop
TTITLE0=Introducing the Candy
TTITLE1=Candy Jelly Love
TTITLE2=안녕 (HI~)
TTITLE3=놀이공원 
TTITLE4=어제처럼 굿나잇
TTITLE5=이별 Chapter 1
TTITLE6=비밀여행 
TTITLE7=남보다 못한 사이 (Feat. 휘성) (Baby Soul Solo)
TTITLE8=그녀는 바람둥이야 (Feat. 동우 of 인피니트) (Baby Soul&Kei)
TTITLE9=Delight (Yoo Ji-Ae Solo)
TTITLE10=너만 없다 (JIN Solo)
EXTD=
EXTT0=
EXTT1=
EXTT2=
EXTT3=
EXTT4=
EXTT5=
EXTT6=
EXTT7=
EXTT8=
EXTT9=
EXTT10=
PLAYORDER=
